<svg width="576" height="192" viewBox="0 0 576 192" fill="none" xmlns="http://www.w3.org/2000/svg">
<mask id="mask0_220_187" style="mask-type:alpha" maskUnits="userSpaceOnUse" x="0" y="0" width="192" height="192">
<rect width="192" height="192" fill="#D9D9D9"/>
</mask>
<g mask="url(#mask0_220_187)">
<path d="M137.124 2.7718V39.7303C137.124 41.7488 136.049 43.515 134.443 44.495L134.213 44.6303L125.594 49.6071L75.4968 78.5318L69.4157 82.0423C69.4157 82.0423 69.4011 82.0496 69.3974 82.0569C69.295 82.1008 69.1963 82.1593 69.1085 82.2251C68.3699 82.7261 67.8799 83.5744 67.8799 84.5398C67.8799 85.5052 68.3699 86.3535 69.1085 86.8545C69.1853 86.9057 69.2548 86.9496 69.3389 86.9898L76.2282 90.9683L99.6751 104.506C99.6751 104.506 99.6824 104.506 99.6897 104.513L100.107 104.758L100.114 104.765C100.834 105.259 101.302 106.096 101.302 107.04C101.302 107.983 100.834 108.82 100.107 109.321L99.7007 109.552L56.8402 134.297L56.6025 134.432C55.82 134.864 54.9131 135.109 53.9551 135.109C53.0921 135.109 52.2693 134.908 51.5453 134.564L51.3076 134.436L50.9419 134.224L26.1311 119.897L17.9107 115.147C17.834 115.106 17.7572 115.062 17.6804 115.011C16.8832 114.529 16.214 113.848 15.7533 113.037C15.2706 112.221 15 111.27 15 110.254V71.6864C15 69.6935 16.0458 67.9456 17.6146 66.9692C17.6328 66.951 17.6584 66.9363 17.6804 66.9254C17.7718 66.8669 17.8596 66.8157 17.9583 66.7718C17.9729 66.7645 17.9839 66.7571 17.9985 66.7462L26.1347 62.0473L53.5675 46.21L86.6316 27.1183L132.79 0.475381C132.867 0.424187 132.937 0.380308 133.021 0.340084C133.412 0.12068 133.869 0 134.344 0C135.88 0 137.127 1.24695 137.127 2.78277L137.124 2.7718Z" fill="white"/>
<path d="M175.687 81.7424V120.31C175.687 122.328 174.612 124.095 173.007 125.067C172.93 125.118 172.853 125.162 172.776 125.203L164.556 129.953L154.156 135.957L137.123 145.79L104.059 164.882L57.9077 191.525C57.8309 191.576 57.7614 191.62 57.6773 191.66C57.286 191.879 56.8289 192 56.3462 192C54.8104 192 53.5635 190.753 53.5635 189.217V152.251C53.5635 150.233 54.6385 148.467 56.2438 147.494C56.3536 147.425 56.4706 147.359 56.5839 147.3L65.0931 142.382L115.19 113.457L121.195 109.994C121.195 109.994 121.202 109.994 121.209 109.987L121.593 109.768C121.593 109.768 121.619 109.749 121.633 109.742C122.354 109.234 122.822 108.404 122.822 107.46C122.822 106.517 122.332 105.646 121.593 105.145C121.502 105.087 121.414 105.028 121.315 104.985L114.455 101.024L91.0083 87.4871C91.0083 87.4871 91.001 87.4871 90.9937 87.4798L90.5439 87.2165L90.5366 87.2092C89.8309 86.7156 89.3738 85.8855 89.3738 84.953C89.3738 84.0206 89.8236 83.2051 90.5256 82.7042C90.5256 82.6968 90.5329 82.6968 90.5403 82.6968L91.0083 82.4262C91.0266 82.408 91.0522 82.4006 91.0778 82.386L133.796 57.7178L134.128 57.5239C134.9 57.1144 135.789 56.8804 136.717 56.8804C137.646 56.8804 138.524 57.1071 139.288 57.5093L139.654 57.7214L164.549 72.0923L172.769 76.8424C172.846 76.8826 172.923 76.9265 172.999 76.9777C173.797 77.4604 174.466 78.1406 174.926 78.9524C175.409 79.7678 175.68 80.7186 175.68 81.7351L175.687 81.7424Z" fill="white"/>
</g>
<mask id="mask1_220_187" style="mask-type:alpha" maskUnits="userSpaceOnUse" x="192" y="48" width="384" height="96">
<rect x="192" y="48" width="384" height="96" fill="#D9D9D9"/>
</mask>
<g mask="url(#mask1_220_187)">
<path d="M232.791 124.464C248.391 124.464 259.384 116.061 259.384 102.302C259.384 87.2823 247.03 83.3961 235.409 79.7199C224.311 76.3589 221.484 73.9431 221.484 69.4267C221.484 65.2254 225.044 62.0744 231.116 62.0744C238.55 62.0744 242.528 65.9606 245.146 71.5274L257.29 64.4902C252.37 54.1969 243.156 48 231.116 48C218.553 48 207.036 55.9825 207.036 69.8468C207.036 83.8162 217.925 88.5427 229.127 91.7987C240.015 94.9497 244.936 97.0503 244.936 102.512C244.936 106.608 241.9 110.284 233.21 110.284C224.102 110.284 218.972 105.873 216.354 99.046L204 106.293C207.978 117.217 217.82 124.464 232.791 124.464Z" fill="white"/>
<path d="M293.411 69.0066C285.769 69.0066 280.22 71.8425 276.451 76.674V70.477H262.945V144H276.451V116.797C280.22 121.628 285.769 124.464 293.411 124.464C307.441 124.464 318.957 112.385 318.957 96.7352C318.957 81.0853 307.441 69.0066 293.411 69.0066ZM290.899 111.545C282.628 111.545 276.451 105.558 276.451 96.7352C276.451 87.9125 282.628 81.9256 290.899 81.9256C299.274 81.9256 305.451 87.9125 305.451 96.7352C305.451 105.558 299.274 111.545 290.899 111.545Z" fill="white"/>
<path d="M352.353 69.0066C345.338 69.0066 339.894 71.6324 336.753 76.3589V49.4705H323.247V122.993H336.753V94.6346C336.753 85.4967 341.674 81.6105 348.27 81.6105C354.342 81.6105 358.635 85.2867 358.635 92.4289V122.993H372.14V90.7484C372.14 76.779 363.451 69.0066 352.353 69.0066Z" fill="white"/>
<path d="M389.85 102.302H429.32C429.634 100.516 429.844 98.7309 429.844 96.7352C429.844 81.2954 418.851 69.0066 403.355 69.0066C386.918 69.0066 375.716 81.0853 375.716 96.7352C375.716 112.385 386.813 124.464 404.402 124.464C414.453 124.464 422.306 120.368 427.226 113.225L416.338 106.923C414.035 109.969 409.847 112.175 404.612 112.175C397.493 112.175 391.734 109.234 389.85 102.302ZM389.64 91.7987C391.211 85.0766 396.131 81.1904 403.355 81.1904C409.009 81.1904 414.663 84.2363 416.338 91.7987H389.64Z" fill="white"/>
<path d="M447.543 79.5098V70.477H434.037V122.993H447.543V97.8906C447.543 86.8622 456.442 83.7112 463.457 84.5514V69.4267C456.861 69.4267 450.265 72.3676 447.543 79.5098Z" fill="white"/>
<path d="M489.096 124.464C504.486 124.464 516.84 112.385 516.84 96.7352C516.84 81.0853 504.486 69.0066 489.096 69.0066C473.706 69.0066 461.456 81.0853 461.456 96.7352C461.456 112.385 473.706 124.464 489.096 124.464ZM489.096 111.23C481.139 111.23 474.962 105.243 474.962 96.7352C474.962 88.2276 481.139 82.2407 489.096 82.2407C497.158 82.2407 503.335 88.2276 503.335 96.7352C503.335 105.243 497.158 111.23 489.096 111.23Z" fill="white"/>
<path d="M550.212 69.0066C543.198 69.0066 537.754 71.6324 534.613 76.3589V70.477H521.107V122.993H534.613V94.6346C534.613 85.4967 539.533 81.6105 546.129 81.6105C552.202 81.6105 556.494 85.2867 556.494 92.4289V122.993H570V90.7484C570 76.779 561.31 69.0066 550.212 69.0066Z" fill="white"/>
</g>
</svg>
